<svg width="30" height="30" viewBox="0 0 30 30" fill="none" xmlns="http://www.w3.org/2000/svg">
<path d="M15 0.833374C7.18004 0.833374 0.833374 7.18004 0.833374 15C0.833374 22.82 7.18004 29.1667 15 29.1667C22.82 29.1667 29.1667 22.82 29.1667 15C29.1667 7.18004 22.82 0.833374 15 0.833374ZM15 5.08337C17.3517 5.08337 19.25 6.98171 19.25 9.33337C19.25 11.685 17.3517 13.5834 15 13.5834C12.6484 13.5834 10.75 11.685 10.75 9.33337C10.75 6.98171 12.6484 5.08337 15 5.08337ZM15 25.2C11.4584 25.2 8.32754 23.3867 6.50004 20.6384C6.54254 17.8192 12.1667 16.275 15 16.275C17.8192 16.275 23.4575 17.8192 23.5 20.6384C21.6725 23.3867 18.5417 25.2 15 25.2Z" fill="#FF9B8D"/>
</svg>
