<svg width="49" height="36" viewBox="0 0 49 36" fill="none" xmlns="http://www.w3.org/2000/svg">
<path d="M48.5 12.7174C48.5 14.9322 46.5641 16.8261 44.3 16.8261L34.939 16.8261C36.4708 18.4243 36.6589 21.4916 34.3484 23.4771C35.6879 25.6173 34.5497 28.4474 32.8062 29.3191C33.6476 33.9261 30.7488 36 26 36C25.7426 36 24.7554 35.981 24.5 35.9817C18.6902 35.9975 17.2912 33.0694 12.9002 32.3897C11.8059 32.2203 11 31.2749 11 30.1674L11 14.087L11.0002 14.0869C11.0012 12.3651 11.9946 10.7223 13.6687 9.97641C16.3768 8.75822 22.6136 5.37909 23.75 2.72737C24.481 1.02159 25.7547 0.000749398 27.5 -5.25573e-07C30.7083 -0.00131289 32.9143 3.29044 31.6362 6.27262C31.3003 7.05628 30.8569 7.83544 30.3093 8.60869L44.3 8.60869C46.4984 8.60869 48.5 10.5346 48.5 12.7174ZM9.5 12.75L9.5 30.75C9.5 31.9927 8.49266 33 7.25 33L2.75 33C1.50734 33 0.499999 31.9927 0.499999 30.75L0.499999 12.75C0.499999 11.5073 1.50734 10.5 2.75 10.5L7.25 10.5C8.49266 10.5 9.5 11.5073 9.5 12.75ZM6.875 28.5C6.875 27.4644 6.03556 26.625 5 26.625C3.96444 26.625 3.125 27.4644 3.125 28.5C3.125 29.5356 3.96444 30.375 5 30.375C6.03556 30.375 6.875 29.5356 6.875 28.5Z" fill="black"/>
</svg>
